# xmcd CD database file
#
# Track frame offsets:
#	150
#	20535
#	43603
#	60831
#	93279
#	118847
#	132811
#	156633
#	176840
#	201970
#	228348
#	247137
#	263919
#	280353
#
# Disc length: 4403 seconds
#
# Revision: 0
# Processed by: cddbd v1.5PL3 Copyright (c) Steve Scherf et al.
# Submitted via: CDex 1.50
#
DISCID=cb11310e
DTITLE=Tono Rosario - Concierto En Vivo
DYEAR=1900
DGENRE=Merengue
TTITLE0=Estoy Contento
TTITLE1=Su Unico Amor
TTITLE2=No Me Hablen De Ella
TTITLE3=La Gozadera II (El Cuco)
TTITLE4=Alegria
TTITLE5=Enamorado Solo
TTITLE6=Cumande
TTITLE7=Otra Como Tu
TTITLE8=Mis Tres Trompetas Politicas
TTITLE9=Asi Fue
TTITLE10=La Ultima Copa
TTITLE11=Loco Loco
TTITLE12=Alegria (Despedida)
TTITLE13=Cumande (Lento)
EXTD=
EXTT0=
EXTT1=
EXTT2=
EXTT3=
EXTT4=
EXTT5=
EXTT6=
EXTT7=
EXTT8=
EXTT9=
EXTT10=
EXTT11=
EXTT12=
EXTT13=
PLAYORDER=
